<?xml version="1.0" encoding="UTF-8"?>
<!DOCTYPE svg PUBLIC "-//W3C//DTD SVG 1.1//EN" "http://www.w3.org/Graphics/SVG/1.1/DTD/svg11.dtd">
<!-- Creator: CorelDRAW 2020 (64-Bit) -->
<svg xmlns="http://www.w3.org/2000/svg" xml:space="preserve" width="4in" height="2.83333in" version="1.1" style="shape-rendering:geometricPrecision; text-rendering:geometricPrecision; image-rendering:optimizeQuality; fill-rule:evenodd; clip-rule:evenodd"
viewBox="0 0 4000 2833.33"
 xmlns:xlink="http://www.w3.org/1999/xlink"
 xmlns:xodm="http://www.corel.com/coreldraw/odm/2003">
 <defs>
  <style type="text/css">
   <![CDATA[
    .fil0 {fill:#D5B574}
   ]]>
  </style>
 </defs>
 <g id="Layer_x0020_1">
  <metadata id="CorelCorpID_0Corel-Layer"/>
  <path class="fil0" d="M2475.35 2539.48c2.19,1.12 -2.28,3.45 9.01,-0.14 10.76,-3.42 17.61,-2.92 24.29,7.23 6.8,10.34 31.85,83.24 37.17,97.83 18.46,50.68 42.68,79.2 109.46,56.62 21.59,-7.3 40.99,-21.94 49.64,-41.37 11.09,-24.91 3,-48.92 -5.32,-72.52 -7.91,-22.43 -15.98,-43.26 -24,-65.68 -6.31,-17.61 -17.93,-38.14 -2.04,-50.33 6.84,-5.24 11.48,-1.63 12.58,-9.31 -5.16,-2.67 -29.7,8.24 -35.61,10.43 -6.24,2.31 -12.9,4.68 -19.13,6.96 -14.26,5.24 -13.22,2.98 -15.05,8.5 14.56,9.28 22.81,-26.08 43.84,31.5 9.75,26.71 41.12,99.76 35.92,125.24 -3.69,18.06 -22.67,33.98 -39.29,41.34 -57.22,25.33 -73.94,-27.51 -87.53,-64.99 -7.47,-20.6 -14.13,-38.85 -21.8,-59.75 -6.1,-16.62 -15.6,-35.39 1.69,-45.02 11.93,-6.65 7.59,1.43 11.48,-7.6 -1.63,-1.02 1.77,-2.58 -6.11,-1.12l-59.22 21.82c-10.69,3.76 -17.2,4.27 -19.99,10.36zm-1149.71 -701.09l15.76 38.57 41.56 3.07 -31.81 26.9 9.92 40.47 -35.42 -21.94 -35.42 21.94 9.92 -40.47 -31.81 -26.9 41.56 -3.07 15.76 -38.57zm1348.73 0l15.76 38.57 41.55 3.07 -31.81 26.9 9.92 40.47 -35.42 -21.94 -35.42 21.94 9.92 -40.47 -31.81 -26.9 41.55 -3.07 15.76 -38.57zm-1200.27 105.68l-26.52 -97.2 23.48 0 16.77 66.76 20.59 -66.76 27.16 0 19.7 67.9 17.17 -67.9 22.93 0 -27.18 97.2 -24.4 0 -22.24 -72.67 -22.39 72.67 -25.06 0zm128.5 -48.01c0,-9.91 1.74,-18.23 5.17,-24.98 2.56,-4.96 6.06,-9.42 10.5,-13.35 4.44,-3.94 9.3,-6.86 14.58,-8.78 7.04,-2.56 15.15,-3.85 24.34,-3.85 16.65,0 29.94,4.46 39.95,13.35 9.97,8.92 14.97,21.3 14.97,37.16 0,15.72 -4.97,28.03 -14.87,36.9 -9.91,8.89 -23.17,13.32 -39.74,13.32 -16.78,0 -30.15,-4.41 -40.04,-13.26 -9.91,-8.82 -14.87,-21 -14.87,-36.52zm23.48 -0.65c0,11.02 2.97,19.37 8.88,25.06 5.91,5.68 13.42,8.53 22.5,8.53 9.12,0 16.58,-2.83 22.43,-8.46 5.83,-5.66 8.74,-14.12 8.74,-25.41 0,-11.15 -2.84,-19.48 -8.54,-24.96 -5.67,-5.5 -13.2,-8.24 -22.64,-8.24 -9.4,0 -16.99,2.78 -22.74,8.33 -5.75,5.57 -8.64,13.94 -8.64,25.14zm103.81 48.67l0 -97.2 22.11 0 46.43 65.13 0 -65.13 21.11 0 0 97.2 -22.82 0 -45.72 -63.89 0 63.89 -21.11 0zm109.07 -48.01c0,-9.91 1.74,-18.23 5.17,-24.98 2.56,-4.96 6.07,-9.42 10.51,-13.35 4.44,-3.94 9.3,-6.86 14.57,-8.78 7.04,-2.56 15.15,-3.85 24.34,-3.85 16.65,0 29.94,4.46 39.95,13.35 9.98,8.92 14.97,21.3 14.97,37.16 0,15.72 -4.97,28.03 -14.87,36.9 -9.9,8.89 -23.16,13.32 -39.74,13.32 -16.78,0 -30.15,-4.41 -40.04,-13.26 -9.9,-8.82 -14.87,-21 -14.87,-36.52zm23.48 -0.65c0,11.02 2.97,19.37 8.88,25.06 5.91,5.68 13.41,8.53 22.5,8.53 9.11,0 16.57,-2.83 22.43,-8.46 5.83,-5.66 8.74,-14.12 8.74,-25.41 0,-11.15 -2.84,-19.48 -8.54,-24.96 -5.67,-5.5 -13.2,-8.24 -22.64,-8.24 -9.4,0 -17,2.78 -22.74,8.33 -5.75,5.57 -8.64,13.94 -8.64,25.14zm104.13 48.67l0 -97.2 22.85 0 0 43.06 46.03 -43.06 30.62 0 -42.57 37.85 44.78 59.35 -29.47 0 -31.05 -45.64 -18.35 16.24 0 29.39 -22.85 0zm113.48 0l0 -97.2 47.97 0c12.06,0 20.83,0.88 26.29,2.63 5.49,1.74 9.85,4.84 13.13,9.3 3.29,4.48 4.94,9.57 4.94,15.32 0,7.3 -2.46,13.33 -7.43,18.08 -4.97,4.75 -12.37,7.74 -22.24,8.98 4.91,2.46 8.95,5.19 12.13,8.14 3.2,2.97 7.51,8.24 12.92,15.8l13.76 18.96 -27.23 0 -16.33 -21.22c-5.86,-7.54 -9.87,-12.28 -12.06,-14.25 -2.15,-1.94 -4.43,-3.3 -6.85,-4.03 -2.44,-0.72 -6.27,-1.08 -11.53,-1.08l-4.62 0 0 40.59 -22.85 0zm22.85 -56.07l16.86 0c10.93,0 17.73,-0.41 20.46,-1.2 2.7,-0.8 4.85,-2.17 6.39,-4.12 1.54,-1.94 2.31,-4.38 2.31,-7.31 0,-3.28 -1.03,-5.91 -3.04,-7.94 -2.03,-2.02 -4.89,-3.28 -8.56,-3.8 -1.87,-0.23 -7.41,-0.34 -16.63,-0.34l-17.78 0 0 24.7zm86.22 8.06c0,-9.91 1.74,-18.23 5.17,-24.98 2.55,-4.96 6.06,-9.42 10.5,-13.35 4.44,-3.94 9.3,-6.86 14.58,-8.78 7.04,-2.56 15.15,-3.85 24.34,-3.85 16.65,0 29.94,4.46 39.94,13.35 9.98,8.92 14.98,21.3 14.98,37.16 0,15.72 -4.97,28.03 -14.87,36.9 -9.91,8.89 -23.17,13.32 -39.74,13.32 -16.78,0 -30.14,-4.41 -40.04,-13.26 -9.91,-8.82 -14.87,-21 -14.87,-36.52zm23.48 -0.65c0,11.02 2.96,19.37 8.88,25.06 5.91,5.68 13.42,8.53 22.5,8.53 9.11,0 16.57,-2.83 22.43,-8.46 5.84,-5.66 8.75,-14.12 8.75,-25.41 0,-11.15 -2.84,-19.48 -8.53,-24.96 -5.67,-5.5 -13.21,-8.24 -22.64,-8.24 -9.4,0 -16.99,2.78 -22.74,8.33 -5.74,5.57 -8.63,13.94 -8.63,25.14zm103.5 48.67l0 -97.2 34.22 0 20.22 66.29 19.98 -66.29 34.3 0 0 97.2 -21.11 0 -0.08 -76.52 -22.24 76.52 -21.94 0 -22.15 -76.52 -0.08 76.52 -21.11 0zm126.85 -48.01c0,-9.91 1.73,-18.23 5.17,-24.98 2.55,-4.96 6.07,-9.42 10.5,-13.35 4.44,-3.94 9.3,-6.86 14.58,-8.78 7.04,-2.56 15.15,-3.85 24.33,-3.85 16.66,0 29.94,4.46 39.95,13.35 9.97,8.92 14.97,21.3 14.97,37.16 0,15.72 -4.96,28.03 -14.86,36.9 -9.91,8.89 -23.17,13.32 -39.74,13.32 -16.78,0 -30.14,-4.41 -40.05,-13.26 -9.9,-8.82 -14.86,-21 -14.86,-36.52zm23.48 -0.65c0,11.02 2.96,19.37 8.88,25.06 5.91,5.68 13.41,8.53 22.5,8.53 9.11,0 16.57,-2.83 22.43,-8.46 5.83,-5.66 8.74,-14.12 8.74,-25.41 0,-11.15 -2.84,-19.48 -8.53,-24.96 -5.67,-5.5 -13.21,-8.24 -22.64,-8.24 -9.4,0 -16.99,2.78 -22.74,8.33 -5.74,5.57 -8.63,13.94 -8.63,25.14zm319.8 567.89c7,2.4 63.56,54.13 66.36,58.93 -5.56,6.07 -61.06,30 -63.07,30.13l-3.28 -89.06zm-1444.38 -769.61c2.62,-44.99 0.27,-97.31 0.27,-143.11l0 -571.25c0,-64.25 -1.04,-71.17 6.99,-134.63 9.53,-75.38 43.34,-150.51 76.98,-207.48 69.47,-117.65 190.78,-209.5 322.75,-249.05 19.72,-5.91 36.26,-9.76 58.35,-14.07 18.85,-3.67 22.83,-1.87 27.16,-8.81 24.16,-38.69 157.68,-277.04 168.78,-291.3 5.31,2 11.85,16.95 14.29,21.19l91.83 158.51c18.57,30.48 35.17,60.63 52.39,90.8 18.79,32.93 10.3,23.99 40.96,29.9 234.5,45.25 417.77,231.85 456.38,472.37 7.16,44.61 7.02,88.17 7.02,136.03l0 569.52c0,45.48 -2.18,96.59 0.26,141.38 42.52,4.56 203.99,-3.92 224.85,1.45l-0.36 392.54c-13.78,3.93 -126.74,1.01 -150.53,1.01 -527.64,0 -1055.27,0 -1582.91,0 -57.41,0 -48.26,6.85 -48.25,-25.54l-0 -339.99c0,-28.52 -2.99,-28.96 8.4,-29.12 41.32,-0.56 199.46,2.16 224.4,-0.35zm-185.62 47.42l231.26 -0.03c3.84,-11.78 0.88,-764.35 1.34,-818.7 0.69,-81.54 24.07,-157.51 54.46,-219.63 56.84,-116.2 166.12,-217.02 287.7,-259.42 37.4,-13.05 67.58,-20.54 109.28,-27.54 26.58,-4.46 19.06,-0.91 36.36,-30.51 13.99,-23.94 119.46,-208.94 126.5,-217.37 4.15,2.11 3.5,1.65 7.29,8.56l44.33 76.49c17.57,29.78 32.4,56.06 49.83,86.31l37.48 64.64c5.69,10.13 3.94,8.22 23.07,11.28 179.89,28.82 319.37,129.17 398.89,286.41 62.65,123.89 55.09,218.52 55.09,353.68l0.01 616.12c-0.01,21.29 -1.44,48.19 0.41,68.79l223.82 0.47 0.76 300.41 -1687.72 0.27 -0.16 -300.22zm551.99 826.12c-11.67,-2.72 -66.26,-11.32 -70.76,-8.76 1.22,9 12.69,1.84 19.44,16.58 6.67,14.57 33.35,183.96 41.41,210.08 7.06,-1.06 5.31,0.19 8.48,-5.39l62.53 -116.59c2.71,2.74 2.47,1.26 4.09,8.48 0.43,1.88 1,5.07 1.6,8.05l9.97 52.13c3.85,19.36 8.3,53.94 13.59,68.76 9.57,-0.75 7.56,-2.73 11.64,-10.5l77.01 -145.44c27.43,-52.48 26.14,-29.52 40.37,-39.55 -2.45,-4.72 2.17,-2.61 -7.16,-4.3l-23.63 -3.63c-4.71,-0.77 -11.72,-1.64 -16.28,-2.56l-14.32 0.13c3.71,8.33 15.7,3.72 19.4,13.56 4.29,11.43 -58.21,124.34 -68.04,139.24 -6.94,-28.53 -11.28,-58.77 -16.82,-88.51 -2.49,-13.4 -6.33,-30.4 -7.75,-43.73 -3.37,-31.5 11.42,-24.68 20.13,-25.86 3.93,-0.53 1.54,-0.12 3.89,-1.61 -2.58,-5.24 2.09,-2.96 -8.25,-4.63l-68.02 -10.43c-7.03,0.42 -0.73,-0.24 -4.02,1.26 1.81,4.3 0.18,2.52 4.54,4.9 2.8,1.53 7.04,1.24 12.4,8.09 4.18,5.33 6.52,14.91 7.99,21.2 7.28,31.02 6.76,28.78 -2.42,46.29l-40.92 75.12c-4.94,-6.2 -7.01,-28.45 -8.61,-36.81 -2.37,-12.41 -4.52,-23.38 -6.78,-35.92 -3.83,-21.34 -12.38,-55.17 -10.81,-76.71 4.28,-8.81 17.33,-5 22.12,-7.89 -1.02,-4.62 0.21,-3.59 -6.03,-5.04zm-336.64 -91.61c8.43,-0.57 18.5,8.48 19.82,15.82 2.43,13.55 -37.35,124.44 -44.21,144.73 -6.19,18.3 -8.59,32.16 -25.86,31.07 -4.58,-0.29 -6.66,-1.72 -9.09,-1.98 -10.7,-1.17 -4.46,0.07 -6.71,1.94 3.19,4.44 65.18,25.63 70.41,22.43 -3.81,-12.46 -30.13,-0.25 -19.49,-37.43l45.51 -134.63c6.59,16.03 14.78,162.07 22.54,191.16 7.89,-0.23 6.7,-1.14 11.36,-6.43l90.56 -97.56c8.14,-9.05 26.24,-30.26 33.25,-34.33 -1.17,8.83 -24.76,77.52 -29.47,91.69 -6.31,19 -15.09,59.13 -29.53,61.93 -16.6,3.21 -16.9,-8.28 -22.61,0.13 3.75,5.58 14.77,7.06 20.59,8.99 12.42,4.11 60.1,22.17 65.39,18.63 -1.33,-4.7 2.99,-1.5 -4.9,-4.91 -4.07,-1.76 -14.27,-4.21 -16.57,-12.59 -2.44,-8.9 3.19,-24.05 5.81,-31.56 6.79,-19.41 12.98,-39.51 19.32,-58.44 6.78,-20.22 12.7,-38.77 19.3,-58.1 2.94,-8.6 6.5,-22.21 12.53,-27.43 9.73,-8.43 22,1.82 28.82,-1.97 -1.17,-4.81 2.9,-2.17 -4.94,-5.35l-20.66 -6.74c-9.3,-3.24 -20.32,-7.26 -29.44,-9.22 -5.99,1.1 -109.72,120.69 -122.56,129.1 -1.72,-2.34 -1.13,0.25 -2.72,-5.61l-19.72 -171.87 -50.07 -16.88 -7.24 -4.5c-3.3,-2.59 0.64,-2.02 -7.26,-4.07l-47.4 -21.69c-7.54,4.16 -105.33,88.09 -119.15,99.73 -6.88,5.8 -10.76,11.63 -19.96,14.66l0.95 -178.78c-4.84,-3.88 -20.8,-10.5 -26.61,-13.23l-21.33 -10.24c-3.57,-1.24 -3.11,-2.47 -8.06,1.03 10.14,13.91 30.85,5 8.13,52.42 -8.97,18.72 -55.59,125.28 -65.56,132.86 -13.31,10.13 -23.15,-6.22 -30.73,0.22 1.92,4.82 48.94,25.76 56.6,28.59l2.26 1.97c0.98,0.61 2.19,1.55 3.68,2 5.64,1.75 2.87,0.65 5.51,-0.61 0.51,-7.42 2.81,-3.85 -6.89,-8.33 -28.29,-5.27 3.45,-57.19 14.05,-79.57 6.47,-13.66 12.76,-26.7 19.28,-40.96 3.59,-7.85 14.87,-34.05 19.87,-39.91l-0.97 193.19c9.21,-0.5 9.63,-3.13 21.19,-13.09 5.56,-4.8 11.81,-9.93 18.76,-15.77 12.09,-10.15 25.78,-21.72 36.4,-30.93 12.2,-10.6 68.5,-59.43 74.88,-61.45 -4.57,13.33 -13.02,29.15 -19.51,42.67 -7.07,14.76 -13.49,28.38 -20.38,43.4 -6.89,15.02 -12.71,28.1 -19.95,41.97 -17.58,33.67 -29.2,7.71 -39.7,13.68 1.67,5.57 7.23,6.68 18.66,11.87 7.94,3.61 13.41,6.19 21.37,9.92 6.88,3.22 13.22,6.15 21.19,9.97 5.27,2.54 15.3,10.06 20.91,6.2 -5.48,-15.13 -33.64,-0.94 -9.84,-49.97l49.62 -105.44c15.37,-32.45 15.65,-38.4 41.95,-30.37l8.62 8.02zm969.95 107c23.66,-20.3 107.21,-33.13 132.15,57.44 18.37,66.71 -24.51,123.14 -92.5,116.44 -2.07,-3.56 -39.39,-165.05 -39.65,-173.88zm-248.63 13.69c-9.75,0.11 -30.22,-1.95 -37.68,1.85 3.14,5.96 -4.11,3.17 8.31,4.87 3.18,0.43 6.41,0.56 8.7,3.7 12.2,16.79 -61.57,74.54 -76.93,92.35 -3.4,-8.02 -2.17,-50.08 -2.3,-62.96 -0.34,-37.04 13.39,-29.37 25.6,-32.94 5.65,-1.66 1.51,1.23 3.97,-3.3 -3.78,-2.53 3.84,-0.83 -5.56,-2.17l-41.48 0.63c-8.06,0.13 -16.11,0.26 -24.17,0.32 -18.26,0.16 -17.21,-1.66 -18.76,4.67 16.67,9.17 29.87,-9.9 30.73,36.22l2.18 132.91c0.38,48.72 -26.26,22.24 -29.45,36.24 5.33,3.43 67.69,1.44 82.8,0.91 7.68,-0.27 5.47,0.88 7,-4.37 -7.52,-4.61 -16.16,0.5 -25.01,-8.07 -8.88,-8.61 -7.12,-80.2 -5.85,-91.64l67.01 63.3c7.56,7.12 17.43,12.62 17.57,26.93 -2.58,2.34 -3.15,3.94 -7.37,5.65 -4.66,1.89 -4.64,0.3 -8.85,3.83 2.7,2.27 0.27,2.85 12.26,2.6 18.32,-0.39 79.52,0.62 88.03,-2.19 -2.7,-12.76 -11.69,2.33 -42.17,-21.98 -8.88,-7.09 -91.87,-83.87 -96.12,-92.34l74.45 -75.93c24.47,-19.77 28.22,-7.97 32.72,-17.26 -2.38,-1.85 -1.32,-2.16 -8.42,-2.35 -3.13,-0.08 -7.22,0.21 -10.49,0.26 -6.9,0.1 -13.8,0.16 -20.71,0.24zm-1841.89 -1189c-12.33,-7.28 -10.29,-11.02 -33.58,-21.63 -50.58,-23.05 -80.04,-30.78 -139.22,-28.34 -1.06,13.91 16.23,39.93 21.64,56.17 7.32,22.01 17.55,36.19 33.03,46.51 26.06,17.37 60.98,28.35 92.33,27.62 11.83,-0.27 24.69,-3.87 35.58,-3.55 3.52,5.38 27.74,104.76 28.78,115.72 -13.76,-5.76 -15.62,-20.4 -42.84,-27.63 -17.79,-4.72 -183.44,-12.73 -194.34,-9.69 -0.32,9.76 5.61,14.4 11.25,21.89 4.53,6 9.07,12.3 14.66,19.81 6.34,8.54 9.2,9.3 17.37,17.18 33.94,32.7 76.77,44.15 129.52,44.09 35.81,-0.03 72.51,-13.27 79.3,-13.18 4.45,14.09 8.39,30.6 12.85,43.96 4.18,12.53 14.63,31.15 15.12,44.15 -22.31,-6.61 -24.63,-12.17 -53.75,-15.83 -53.44,-6.72 -141.3,-5.33 -188.05,14.14 1.89,19.08 29.04,41.74 45.31,54.63 18.51,14.67 43.03,26.19 67.07,32.72 32.67,8.88 56.01,9.54 86.17,-2.37 15.61,-6.16 37.74,-13.07 49.15,-25.35 5.46,-5.89 6.05,-9.81 15.29,-11.97 2.58,8.59 7.05,14.94 11.11,23.61 7.91,16.89 33.93,58.86 36.78,72.25 -26.15,-3.73 -30.23,-15.24 -65.18,-10.41 -19.61,2.71 -46.14,9.4 -62.19,16.15 -14.23,6 -101.36,41.39 -103.85,50.9 1.02,13.97 25.69,27.56 40.49,35.06 17.53,8.87 42.23,12.3 66.15,12.28 38.91,-0.03 91.92,-16.06 119.19,-40.35 6.5,-5.79 21.3,-21.76 29.26,-24.77l37.71 50.97c7.09,9.63 33.6,44.83 36.79,53.67 -33.93,0.18 -67.62,-19.13 -136.23,6.81 -27.59,10.42 -50.37,24.7 -74.98,40.7l-24.41 15.78c1.78,9.48 12.45,12.01 21.88,15.15 29.98,10 61,15.84 94.37,15.76 97.34,-0.24 117.5,-49.73 141.54,-63.72 11.5,4.03 33.82,40.36 42.22,50.98 6.2,7.85 38.65,47.13 40.3,53.89 -24.1,-2.37 -31.8,-8.15 -63.52,-8.1 -33.78,0.06 -65.59,10.66 -89.99,23.85 -15.48,8.37 -59.8,36.24 -62.95,50.26 7.04,8.74 42.59,18.62 57.44,21.3 16.11,2.93 63.02,3.36 78.75,-0.16 19.84,-4.44 38.98,-16.2 53.53,-27.57 7.28,-5.69 38.79,-34.75 44.35,-36.72 11.29,6.57 68.37,75.59 70.69,87.94 -47.28,1.25 -58.59,-13.64 -115.82,11.9 -25.67,11.45 -64.63,46.33 -65.06,68.96 16.91,8.31 40.49,17.36 63.57,17.31 52.93,-0.12 94.58,-18.92 129.11,-55.39 4.69,-4.94 8.46,-11.64 14.17,-13.9 8,5.54 19.25,21.86 26.33,31.19 8.7,11.43 16.47,25.98 34.63,15.08 -0.18,-32.86 -35.25,-40.51 -40.65,-66.88 38.25,-10.48 66.25,-34.41 88.98,-62.87 11.73,-14.69 22.17,-28.76 29.27,-46.71 7.45,-18.84 7.52,-49.65 1.06,-67.37 -39.18,-2.98 -78.81,32.62 -94.52,51.62 -27.67,33.5 -35.72,58.48 -41.06,105.61 -7.96,-2.88 -34.66,-37.54 -39.79,-44.21 -7.48,-9.72 -33.73,-41.24 -36.4,-47.81 26.47,-16.96 104.13,-12.54 132.68,-129.33 2.76,-11.26 5.04,-25.33 4.95,-38.09 -0.05,-6.77 -0.7,-14.09 -2.16,-20.25l-6.35 -16.72c-18.22,1.7 -43.02,17.42 -54.85,27.05 -44.29,36.02 -75.61,88.01 -92,142.55l-3.31 7.5c-10.17,-5.51 -31.09,-37.16 -40.55,-49.61 -6.89,-9.08 -12.98,-16.56 -19.53,-25.26 -3.71,-4.94 -16.91,-20.46 -19.87,-27.27l7.59 -3.48c17.58,-5.27 35.87,-11.77 51.56,-20.82 33.29,-19.21 44.39,-33.43 65.05,-60.85 15.35,-20.38 32.57,-74.82 20.95,-98.91 -17.6,0.93 -90.55,42.88 -105.76,55.48 -17.74,14.7 -27.66,22.96 -36.11,45.03 -3.86,10.1 -7.5,18.77 -11.33,28.47 -3.13,7.89 -5.83,27.46 -8.67,32.8 -9.07,-5.08 -76.19,-98.06 -77.19,-110.09 33,-2.19 45.63,-3.46 72.79,-15.23 66.99,-29.04 114.82,-68.38 108.28,-158.14 -20.18,-0.34 -109.64,34.98 -126.76,46.34 -28.73,19.07 -49.13,53.24 -67.78,82.31 -2.85,4.45 -4.63,10.45 -7.73,14.13 -9.44,-12.05 -21.95,-35.8 -30.07,-50.46 -4.67,-8.42 -8.21,-17.44 -13.04,-26.48 -4.61,-8.63 -11.25,-18.42 -12.31,-29.51 15.63,0.7 23.73,4.72 41.68,3.63 35.42,-2.15 68.26,-25.35 89.7,-46.57 15.7,-15.53 24.55,-32.01 35.84,-53.78 3.64,-7.02 35.38,-78.36 6.51,-71.64l-23.04 8.16c-30.14,9.6 -60.28,21.07 -88.04,36.57 -16,8.94 -31.81,27.35 -42.65,40.08 -12.53,14.72 -26.64,36.92 -37.09,45.29 -5.1,-7.91 -31.37,-88.59 -30.67,-97.45 55.05,-2.56 91.21,-20.5 129.2,-55.49 34.8,-32.06 64.6,-80.02 61.96,-132.87 -64.63,-3.46 -137.7,31.81 -173.7,78.11 -10.53,13.55 -21.67,27.83 -28.57,43.64 -3.29,7.55 0.13,3.91 -5.12,7.56 -6.35,-11.1 -21.06,-79.48 -23.22,-97.77 19.76,1.89 17.15,4.65 37.44,-2.08 53.54,-17.77 94.09,-53.64 107.24,-110.18 3.11,-13.39 9.74,-71.65 2.76,-81.14 -2.82,-2.88 -4.07,-2.88 -12.65,0.58 -28.22,11.33 -56.65,24.67 -80.36,45.35 -66.14,57.69 -48.06,59.57 -63.72,79.46 -1.08,-1.44 -0.98,-0.36 -1.96,-3.39 -0.04,-0.11 -0.81,-3.83 -0.83,-4.06 -2.24,-16.66 14.33,-40.36 20.61,-55.77 19.19,-47.17 21.91,-98.2 -6.76,-141.06 -9.55,-14.27 -28.68,-39.89 -45.58,-44.52 -10.39,6.05 -32.48,36.19 -37.19,49.43 -22.66,63.76 -9.19,114.51 30.61,166.22 8.43,10.95 13.27,14.25 13.42,31.4zm2015.05 4.63l-61.65 0.21 -54.7 -218.87c-0.56,-2.05 -1.01,-3.85 -1.71,-6.4l-3.3 -8.38c-2.1,2.87 -1.23,-3.14 -2.67,6.08 -0.09,0.57 -0,6.06 0.01,7.02 0.63,45.73 1.67,196.13 -0.26,219.8l-58.59 0.85 -0.67 -316.67 95.71 -0.24c6.36,24.91 52.87,207.58 57.96,212.79l28.21 -105.19c5.05,-17.83 24.11,-98.81 28.94,-107.48l94.08 -0.15 0.63 315.7 -58.94 0.67c-1.11,-30.36 2.45,-235.25 -1.43,-243.25l-61.61 243.5zm1216.89 54.77c-2.08,39.12 37.72,89.58 62.52,114.09 16.27,16.09 30.63,24.79 53.91,35.67 29.39,13.72 38,13.04 74.03,15.7 0.73,12.83 -26.32,91.86 -32.12,99.24 -19.2,-12.18 -40.53,-62.54 -79.55,-84.03 -17.81,-9.81 -95.31,-47.99 -120.64,-45.21 -3.35,45.81 31.33,104.2 53.44,126.21 19.85,19.76 60.65,44.17 89.75,44.68 15.57,0.27 25.08,-4.74 41.25,-3.29 -2.56,18.18 -30.04,60.75 -39.7,80.87 -5.06,10.53 -8.46,19.77 -17.06,25.26 -1.75,-1.8 -0.95,-0.13 -2.79,-3.35 -0.94,-1.64 -0.81,-1.81 -1.57,-3.63 -1.25,-3.02 -1.35,-3.66 -3.07,-7.13 -2.8,-5.65 -4.09,-7.5 -7.87,-12.93 -5.74,-8.25 -13.59,-17.81 -18.64,-24.55 -15.25,-20.34 -22.92,-32.97 -41.64,-44.62 -16.46,-10.25 -105.07,-45.58 -125.06,-46.3 -3.86,51.97 9.2,97.35 50.69,125.78 39.59,27.14 74.57,42.12 129.48,46.93 -0.39,16.18 -43.54,67.3 -55.98,84.02 -5.24,7.03 -15.27,22.48 -20.22,26.67 -0.3,-0.34 -0.77,-1.32 -0.88,-1.05l-20.31 -58.91c-9.34,-23.61 -18.56,-33.91 -35.29,-46.14 -13.3,-9.72 -93.3,-55.94 -108.1,-53.54 -4.47,17.16 5.06,55.77 9.66,70.68 12.87,41.75 43.47,66.7 79.2,86.72 15.53,8.71 33.88,15.78 51.52,21.03 0.31,0.09 3.58,1.13 3.77,1.22 5.47,2.49 0.89,0.2 3.49,2.19 -5.28,12.05 -30.78,40.76 -39.43,52.38 -4.56,6.13 -34.19,48.95 -42.02,50.6 -5.87,-6.26 -6.67,-20.08 -9.98,-29.34 -3.74,-10.49 -7.92,-18.9 -12.8,-28.48 -18.79,-36.91 -39.06,-67.87 -71.5,-92.45 -11.04,-8.37 -41.07,-27.87 -55.9,-27.23 -19.85,36.83 2.14,106.2 23.28,135.77 12.46,17.44 25.94,29.78 44.74,41.43 8.87,5.49 19.2,10.62 28.73,14.69 7.63,3.26 27.71,8.8 32.52,12.07 -3.21,14.52 -43.31,55.32 -56,71.52 -5.21,6.65 -12.74,20.29 -21.04,21.38 -2.54,-44.73 -13.18,-72.87 -39.91,-105.19 -19.3,-23.33 -52.47,-51.77 -95.11,-51.25 -7.17,46.4 5.87,87.52 30.13,114.44 17.09,18.97 58.83,55.26 89.98,60.52 -4.36,25.38 -44.52,39.45 -39.74,67.15 22.61,15.02 45.46,-34.68 59.39,-47.04 18.23,7.71 52.36,74.53 151.91,69.27 20.37,-1.08 39.7,-7.65 55.95,-18.7 -4.69,-15.34 -16.4,-28.48 -26.57,-38.87 -23.84,-24.37 -59.6,-40.91 -94.93,-42.54 -30.94,-1.41 -53.75,4.39 -63.27,4.06 3.76,-11.68 27.58,-34.65 36.41,-45.26 8.41,-10.11 26.91,-38.09 37.17,-45.76 25.74,14.26 46.59,53.63 97.39,64.4 45.33,9.61 89.47,0.76 131.09,-15.42l6.37 -4.03c-5.94,-19.4 -66.1,-52.2 -87.21,-61.26 -22.11,-9.49 -35.51,-11.04 -63.07,-10.74 -20.03,0.22 -51.17,6.98 -68.28,5.78 3.16,-6.72 79.63,-102.71 83.82,-104.74 26.61,11.31 30.51,49.6 113.61,60.39 29.3,3.81 111.4,-0.52 139.09,-19.94 4.89,-3.44 3.81,-2.11 4.8,-7.56 -6.45,-6.09 -36.91,-24.33 -47.29,-30.63 -32.35,-19.63 -76.98,-39.19 -115.26,-39.87 -26.74,-0.47 -48.45,7.45 -73.24,7.33 3.46,-9.87 12.05,-19.27 18.4,-27.98 12.6,-17.28 45.88,-70.71 58.29,-78.35 14.2,11.95 8.28,17.94 51.19,40.62 53.11,28.07 128.78,39.39 180.74,1.75 8.07,-5.83 21.87,-13.42 21.72,-24.75 -24.18,-16.38 -73.54,-37.13 -104.38,-49.05 -29.77,-11.49 -65.37,-22.35 -97.41,-14.97 -11.51,2.65 -18.61,8.97 -30,11.03 2.91,-16.84 28.09,-55.06 37.24,-74.39 3.52,-7.44 6.34,-19.65 13.4,-25.11 14.76,12.06 11.59,22.04 60.85,38.23 26.16,8.6 58.02,11.67 86.94,3.12 22.65,-6.7 48.27,-18.45 66.27,-32.14 15.89,-12.08 44.76,-33.69 45.67,-53.47 -0.44,-0.3 -1.07,-1.29 -1.32,-0.89 -0.25,0.39 -0.98,-0.66 -1.33,-0.82 -7.13,-3.31 -16.91,-4.87 -24.33,-6.39 -9.83,-2.01 -19.15,-4.41 -29.01,-5.38 -43.26,-4.25 -89.6,-3.56 -133,-1.57 -31.27,1.43 -32.02,9.94 -53.06,16.25l30.17 -91.32c25.56,3.49 22.71,14.31 78.15,14.17 54.53,-0.14 96.44,-9.14 135.26,-47.69 6.76,-6.72 37.09,-41.51 38.22,-53.35 -22.02,-2.66 -44.77,0.94 -67.32,-2.03 -10.32,-1.36 -17.38,2.23 -30.2,2.37 -11.51,0.12 -23.02,0.01 -34.54,0.25 -85.76,1.76 -84.47,25 -104.2,35.76 1.16,-21.54 8.36,-38.63 13.06,-57.17 4.94,-19.52 7.91,-39.31 12.43,-58.63 15.45,-2.55 43.13,5.13 73.49,0.56 17.07,-2.58 41.7,-15.13 54.83,-24.05 23.56,-16.02 22.73,-18.5 33.67,-46.02 4,-10.06 23.61,-49.39 23.43,-56.6 -50.98,-0.67 -40.15,-5.96 -95.85,11.91 -21.56,6.93 -42.04,12.28 -60.41,24.3 -6.59,4.31 -10.04,10.74 -17.45,11.59 -0.89,-18.04 2.15,-16.99 11.96,-29.17 20.03,-24.87 38.95,-53.32 41.88,-88.23 1.69,-20.12 -1.23,-61.15 -8.52,-76.72 -8.89,-19 -23.2,-38.64 -37.02,-49.33 -19.52,1.8 -36.04,27.61 -45.49,42.55 -31.28,49.47 -27.67,85.67 -7.3,139.91l20.26 47.07c0.74,5.8 0.37,15.27 -1.99,20.31 -6.15,-2.12 -2.48,-1.95 -5.39,-11.51 -1.43,-4.7 -3.69,-8.9 -6.07,-12.88 -9.71,-16.21 -37.7,-44.13 -52.17,-56.46 -21.56,-18.4 -42.32,-28.9 -68.61,-40.2 -10.93,-4.7 -20.11,-11.31 -24.18,-7.2 -8.25,10.46 -1.88,62.15 0.61,76.89 4.8,28.32 15.2,41.78 28.45,60.06 14.06,19.4 24.43,26.84 48.06,40.03 27.71,15.46 39.06,17.89 68.52,16.05 0.82,12.73 -17.64,90.6 -22.03,97.54 -5.65,-3.16 -25.65,-34.96 -32.46,-44.95 -20.95,-30.75 -53.98,-54.41 -90.34,-68.06 -11.29,-4.24 -51.91,-13.37 -64.28,-13.96l-10.29 -3.21c-4.69,-0.37 -6.09,-0.46 -10.75,0.19 -2.23,5.61 -1.98,5.09 -1.7,11.3 0.56,12.54 2.04,9.47 3.15,11.04zm-1319.83 1361.95c21.96,0.81 59.05,-6.47 81.67,-9.03 27.35,-3.1 51.91,-5.96 79.65,-9.72l-2.06 -15.39 -160.66 19.45 1.41 14.7zm-398.93 -1528.35c0.3,-10.5 21.96,-84.58 26.15,-101.94l27.12 -103.07 95.51 0.53 -0.5 315.86c-10.62,1.44 -25.91,0.55 -37.06,0.56 -19.87,0.02 -22.1,5.16 -21.9,-13.49l0.03 -148.46c0,-8.01 2.4,-66.38 -2.31,-73.25 -7.17,13.02 -54.45,221.55 -60.41,235.13l-60.43 0.03c-3.81,-7.03 -13.41,-48.37 -16.05,-59.05 -5.7,-23.12 -41.01,-171.31 -46.09,-180.62 -3.59,6.74 -1.53,112.23 -1.53,119.19 0,10.98 2.22,115.87 -1.8,119.36 -8.42,3.46 -44.66,1.7 -57.33,0.87l0.72 -316.38c4.71,-0.3 89.78,-2.52 94.02,1.68 4.75,5.81 23.92,85.81 27.69,99.69l25.82 99.15c1.07,6.54 0.41,9.92 5.63,13.05l2.71 -8.82zm-227.86 -240.99l-0.13 434.86 103.6 -25.26c94.62,-16.96 205.18,-15.04 297.48,10.72 10,2.8 16.91,4.2 25.89,6.91 8.1,2.44 20.92,7 28.07,7.22l0.05 -435.34c-20.29,-10.26 -77.31,-24.01 -104.06,-28.87 -82,-14.89 -164.05,-15.44 -246.24,0.19 -23.39,4.45 -87.71,19.51 -104.66,29.57zm472.37 -0.54l-0.12 435.39c5.65,-0.05 40.48,-11.27 50.63,-13.74 105.31,-25.7 189.42,-30 297.39,-12.1 16.91,2.81 37.82,6.79 53.93,11.57 9.2,2.74 47.66,14.12 53.3,13.79l-0.02 -434.96c-10.77,-5.74 -37.31,-12.49 -49.74,-15.94 -18.46,-5.12 -35.39,-8.96 -54.44,-12.8 -78.48,-15.79 -167.44,-15.39 -245.78,-0.55 -26.44,5.01 -86.94,19 -105.16,29.35zm-196.3 606.2l581.24 0.06 0.32 136.56 -787.22 0.73c-5.72,-95.01 59.15,-193.27 118.35,-260.46 4.95,-5.63 5.55,-9.46 15.55,-10.01 41.1,-2.28 122.63,3.24 163.87,13.65l6.93 3.35c-8.15,9.33 -18.4,16.8 -27.36,25.98 -9.03,9.25 -16.72,15.96 -26.24,27.15 -9.8,11.51 -43.1,48.6 -45.44,63zm-282.55 -107.38c-14.31,-62.34 -10.09,-54.5 -10.09,-119.2l0 -260.6c0,-41.74 -2.25,-90.15 0.3,-131.07 56.17,-26.95 171.14,-44.59 236.24,-45.44 137.81,-1.81 231.6,40.59 243.36,40.84 5.13,0.11 44.92,-13.49 53.71,-15.85 141.46,-38.11 291,-33.23 426.39,20.05 2.59,40.43 0.33,88.49 0.33,129.76l0.02 324.45c0.04,20.13 -6.25,38.33 -9.52,56.73 -7.11,-0.28 -40.97,-13.61 -51.47,-16.77 -101.15,-30.46 -206.9,-34.47 -310.59,-15.98 -18.51,3.3 -37.76,8.01 -55.71,13.65 -75.3,23.65 -27.21,24.64 -102.76,1.82 -95.35,-28.8 -214.16,-32.73 -311.3,-13.22 -29.7,5.96 -53.6,12.17 -81.6,21.57 -9.68,3.25 -17.81,7.67 -27.31,9.28zm107.88 -606.6c-2.91,-12.08 9.14,-62.8 13.18,-76.69 21.45,-73.6 49.41,-121.24 106.38,-168.47 72.34,-59.97 165.93,-83.09 283.82,-80.87 113.24,2.14 201.32,41.78 261.5,103.26 50.45,51.54 79.37,111.4 87.63,186.96 1.91,17.48 3.2,69.17 -2.17,84.69 -7.45,1.23 -57.16,-8.87 -70.64,-10.43 -25.51,-2.95 -50.04,-4.41 -76.62,-4.89 -2.49,-26.05 7.89,-59.41 -9.25,-104.17 -11.38,-29.7 -24.31,-49.8 -43.74,-70.2 -80.61,-84.65 -242.37,-88.87 -331.87,-10.81 -43.44,37.9 -64.34,75.98 -70.67,155.72 -11.01,1.95 -126.33,-3.32 -147.55,-4.11zm258.1 -488.4c-55.38,6.04 -128.3,22.87 -177.1,45.74 -54.76,25.68 -96.9,56.4 -132.29,90.61 -69.56,67.24 -134.48,175.06 -141.13,306.23 -3.61,71.37 -1.52,148.2 -1.52,220.83l0 557.45c0,36.38 1.53,76.19 -0.24,112.15l-231.85 0.63c-2.15,18.38 -1.05,159.73 -0.69,189.49l1578 0.23 -0.12 -189.03 -223.98 -0.24c-3.9,-12.47 -1.35,-727.87 -1.35,-777.67 0,-87.83 4.08,-151.16 -24.96,-235.15 -43.96,-127.11 -133.32,-219.74 -245.57,-273.76 -29.11,-14.02 -61.22,-24.74 -96.13,-32.94 -17.93,-4.21 -38.3,-7.14 -55.8,-9.97 -33.25,-5.37 -26.26,-0.3 -40.78,-25.06 -16.38,-27.92 -29.78,-52.07 -47.44,-81.98l-44.83 -77.77c-5.37,-7.18 -0.04,-1.65 -5.81,-4.44l-106.4 184.64zm383.59 2120.02c15.07,8.44 26.79,-18.69 38.14,32.59l27.43 121.2c6.95,29.4 6,35.31 -14.74,42.02 -8.29,2.67 -3.76,-0.38 -5.81,4.4 3.76,2.75 0.98,2.43 8,1.35l24.8 -5.93c32.06,-7.54 75.48,-14.5 101.51,-28.27 37.24,-19.69 62.69,-59.41 50.52,-114.08 -9.72,-43.62 -40.29,-80.91 -88.39,-82.57 -26.83,-0.93 -50.97,5.02 -74.09,10.43l-52.33 11.86c-7.68,1.59 -13.57,0.43 -15.06,7zm-917.04 -1655.07l-0.03 786.11c-37.5,3.56 -217.2,-4.57 -233.2,1.95l-0.02 351.36 1740.33 0.92c3.06,-15.98 1.55,-313.02 0.91,-353.71l-211.31 -0.11c-8.37,0.09 -12.7,2.24 -13.8,-4.6l0.1 -693.91c0,-118.23 3.69,-164.55 -34.98,-273.71 -49.13,-138.7 -165.92,-256.78 -302.17,-314.53 -35.14,-14.9 -76.62,-27.68 -118.72,-34.78 -31.92,-5.37 -22.81,0.55 -43.27,-34.4l-134.07 -231.7c-1.22,-2.17 -2.07,-4.31 -3.58,-6.65l-5.98 -5.48c-20.08,37.11 -42.93,74.94 -66.22,114.88 -21.63,37.08 -42.25,74.42 -66.43,114.8 -5.09,8.5 -10.67,18.57 -16.35,28.42 -9.7,16.76 -4.89,14.62 -26.05,18.51 -78.25,14.37 -133.26,33.18 -200.9,73.87 -134.5,80.91 -263.64,249.72 -264.23,462.75zm446.88 -589.15c-235.89,39.11 -418.25,217.44 -479.24,432.33 -19.91,70.14 -22.72,126.12 -22.72,205.14l0 569.52c0,35.4 2.28,79.13 -0.33,113.5l-231.94 0.59 -0.01 463.34 1850.4 0.33 0.18 -462.8 -224.69 -0.95c-2.21,-26.32 -0.38,-260.33 -0.38,-293.5 0,-144.14 1.67,-296.64 -0.08,-440.09 -0.59,-47.59 -6.58,-87.92 -16.2,-130.85 -32.41,-144.66 -121.23,-266.57 -236.31,-351.74 -60.44,-44.73 -144.49,-83.18 -228.24,-101.02 -30.65,-6.54 -16.39,2.89 -52.9,-58.12 -18.82,-31.48 -35.77,-61.28 -53.72,-92.96l-108.19 -186.52c-6.73,3.31 -44.41,73.32 -49.2,81.53l-146.4 252.26zm953.69 2316.47c6.22,-0.44 43.89,-18.6 54.72,-24.05 6.94,-3.5 4.69,-0.44 4.76,-6.79 -7.44,-3.04 -25.31,13.28 -30.2,-8.81 -2.07,-9.32 -2.94,-39.54 -2.02,-49.79 13.75,-5.51 63.71,-32.09 74.3,-33.08 8.43,6.19 15.45,13.56 22.09,19.55 8.4,7.59 26.72,22.3 9.28,34.4 -6.66,4.63 -5.08,0.24 -5.52,8.74 8.02,-1.04 45.28,-19.89 57.65,-25.63 10.51,-4.88 14.68,-5.13 17.24,-10.95 -2.62,-1.55 0.13,-1.32 -4.03,-1.55 -2.14,-0.12 -2.55,0.28 -4.2,0.53 -9.68,1.5 -13.95,1.92 -24.28,-5.09 -11.56,-7.83 -56.78,-49.33 -68.94,-60.46l-83.19 -75.68c-5.45,-4.48 -1.88,-3.31 -9.42,-2.9 -1.22,14.98 2.94,105.44 4.15,124.74 0.91,14.5 3.69,83.44 -0.09,96.56 -3.9,13.56 -12.65,9.51 -12.27,20.26z"/>
 </g>
</svg>
